<?xml version='1.0' encoding='utf-8'?>
<svg xmlns="http://www.w3.org/2000/svg" width="91.44mm" height="91.44mm" version="1.1" style="shape-rendering:geometricPrecision; text-rendering:geometricPrecision; image-rendering:optimizeQuality; fill-rule:evenodd; clip-rule:evenodd" viewBox="0 0 9144 9144"> <defs> <style type="text/css">  .fil0 {fill:#F0F0F0} .fil1 {fill:#011627;fill-rule:nonzero}  </style> </defs> <g id="Layer_x0020_1"> <metadata id="CorelCorpID_0Corel-Layer"/> <g id="_2744583897728"> <polygon class="fil0" points="0,0 9144,0 9144,9144 0,9144 "/> <path class="fil1" d="M3979 3133l1186 0 0 -508 -1186 0 0 508zm481 3169l225 0 400 -561 -1026 0 401 561zm197 -3000l0 2270 508 0 0 -2270 -508 0zm-170 2270l0 -2270 -508 0 0 2270 508 0zm847 -2355l0 2439c0,21 -7,40 -20,55l-672 941c-2,3 -5,7 -8,10l-1 1 -2 2 -1 1 -1 0c-5,6 -12,10 -19,14l-1 0c-9,5 -19,7 -29,8l-2 0 -2 1 -8 0 -2 -1 -2 0c-10,-1 -19,-3 -29,-8l-1 0c-7,-4 -13,-8 -19,-14l-2 -1 -1 -2 -2 -1c-3,-4 -5,-7 -8,-10l-672 -941c-13,-15 -20,-34 -20,-55l0 -3116c0,-47 38,-85 85,-85l1354 0c47,0 85,38 85,85l0 677z"/> </g> </g> </svg>